<mxfile host="app.diagrams.net" modified="2023-09-03T21:44:19.463Z" agent="Mozilla/5.0 (Windows NT 10.0; Win64; x64) AppleWebKit/537.36 (KHTML, like Gecko) Chrome/116.0.0.0 Safari/537.36 Edg/116.0.1938.62" etag="yyiNYo_foy8SqZBo6cxq" version="21.7.2" type="device">
  <diagram name="Page-1" id="Kl7K-K8jYVUUHL2AAdAP">
    <mxGraphModel dx="4560" dy="2557" grid="1" gridSize="10" guides="1" tooltips="1" connect="1" arrows="1" fold="1" page="1" pageScale="1" pageWidth="2023" pageHeight="1864" math="0" shadow="0">
      <root>
        <mxCell id="0" />
        <mxCell id="1" parent="0" />
        <mxCell id="nveqq8prh_hxf_t2DsAK-2" value="&lt;font style=&quot;font-size: 30px;&quot;&gt;User&lt;/font&gt;" style="rounded=1;arcSize=10;whiteSpace=wrap;html=1;align=center;fontFamily=Times New Roman;fontSize=35;strokeWidth=3;" vertex="1" parent="1">
          <mxGeometry x="172" y="796.9999999999998" width="200" height="120" as="geometry" />
        </mxCell>
        <mxCell id="nveqq8prh_hxf_t2DsAK-3" value="&lt;font style=&quot;font-size: 30px;&quot;&gt;PigCare&lt;/font&gt;" style="swimlane;childLayout=stackLayout;horizontal=1;startSize=50;horizontalStack=0;rounded=1;fontSize=14;fontStyle=0;strokeWidth=2;resizeParent=0;resizeLast=1;shadow=0;dashed=0;align=center;arcSize=4;whiteSpace=wrap;html=1;fillColor=#cccccc;strokeColor=#36393d;fontFamily=Times New Roman;" vertex="1" parent="1">
          <mxGeometry x="512" y="797" width="250" height="190" as="geometry" />
        </mxCell>
        <mxCell id="nveqq8prh_hxf_t2DsAK-4" value="&lt;font style=&quot;font-size: 25px;&quot;&gt;+Symptom Analysis&lt;br&gt;+Nutrition&lt;br&gt;+Facts&lt;br&gt;+Ideal Months&amp;nbsp;&lt;/font&gt;" style="align=left;strokeColor=none;fillColor=none;spacingLeft=4;fontSize=12;verticalAlign=top;resizable=0;rotatable=0;part=1;html=1;fontFamily=Times New Roman;" vertex="1" parent="nveqq8prh_hxf_t2DsAK-3">
          <mxGeometry y="50" width="250" height="140" as="geometry" />
        </mxCell>
        <mxCell id="nveqq8prh_hxf_t2DsAK-5" value="&lt;font style=&quot;font-size: 30px;&quot;&gt;Database&lt;/font&gt;" style="shape=table;startSize=50;container=1;collapsible=1;childLayout=tableLayout;fixedRows=1;rowLines=0;fontStyle=0;align=center;resizeLast=1;html=1;swimlaneLine=1;rounded=1;rotation=0;fontSize=14;fontFamily=Times New Roman;fillColor=#cccccc;strokeColor=#36393d;strokeWidth=2;shadow=0;dashed=0;arcSize=4;" vertex="1" parent="1">
          <mxGeometry x="912" y="797" width="350" height="180" as="geometry" />
        </mxCell>
        <mxCell id="nveqq8prh_hxf_t2DsAK-6" value="" style="shape=tableRow;horizontal=0;startSize=0;swimlaneHead=0;swimlaneBody=0;fillColor=none;collapsible=0;dropTarget=0;points=[[0,0.5],[1,0.5]];portConstraint=eastwest;top=0;left=0;right=0;bottom=1;" vertex="1" parent="nveqq8prh_hxf_t2DsAK-5">
          <mxGeometry y="50" width="350" height="30" as="geometry" />
        </mxCell>
        <mxCell id="nveqq8prh_hxf_t2DsAK-7" value="PK" style="shape=partialRectangle;connectable=0;fillColor=none;top=0;left=0;bottom=0;right=0;fontStyle=1;overflow=hidden;whiteSpace=wrap;html=1;fontFamily=Times New Roman;fontSize=21;" vertex="1" parent="nveqq8prh_hxf_t2DsAK-6">
          <mxGeometry width="40" height="30" as="geometry">
            <mxRectangle width="40" height="30" as="alternateBounds" />
          </mxGeometry>
        </mxCell>
        <mxCell id="nveqq8prh_hxf_t2DsAK-8" value="UniqueID" style="shape=partialRectangle;connectable=0;fillColor=none;top=0;left=0;bottom=0;right=0;align=left;spacingLeft=6;fontStyle=5;overflow=hidden;whiteSpace=wrap;html=1;fontFamily=Times New Roman;fontSize=21;" vertex="1" parent="nveqq8prh_hxf_t2DsAK-6">
          <mxGeometry x="40" width="170" height="30" as="geometry">
            <mxRectangle width="170" height="30" as="alternateBounds" />
          </mxGeometry>
        </mxCell>
        <mxCell id="nveqq8prh_hxf_t2DsAK-18" value="INT" style="shape=partialRectangle;connectable=0;fillColor=none;top=0;left=0;bottom=0;right=0;align=left;spacingLeft=6;fontStyle=5;overflow=hidden;whiteSpace=wrap;html=1;fontFamily=Times New Roman;fontSize=21;" vertex="1" parent="nveqq8prh_hxf_t2DsAK-6">
          <mxGeometry x="210" width="140" height="30" as="geometry">
            <mxRectangle width="140" height="30" as="alternateBounds" />
          </mxGeometry>
        </mxCell>
        <mxCell id="nveqq8prh_hxf_t2DsAK-9" value="" style="shape=tableRow;horizontal=0;startSize=0;swimlaneHead=0;swimlaneBody=0;fillColor=none;collapsible=0;dropTarget=0;points=[[0,0.5],[1,0.5]];portConstraint=eastwest;top=0;left=0;right=0;bottom=0;" vertex="1" parent="nveqq8prh_hxf_t2DsAK-5">
          <mxGeometry y="80" width="350" height="40" as="geometry" />
        </mxCell>
        <mxCell id="nveqq8prh_hxf_t2DsAK-10" value="" style="shape=partialRectangle;connectable=0;fillColor=none;top=0;left=0;bottom=0;right=0;editable=1;overflow=hidden;whiteSpace=wrap;html=1;fontFamily=Times New Roman;fontSize=21;" vertex="1" parent="nveqq8prh_hxf_t2DsAK-9">
          <mxGeometry width="40" height="40" as="geometry">
            <mxRectangle width="40" height="40" as="alternateBounds" />
          </mxGeometry>
        </mxCell>
        <mxCell id="nveqq8prh_hxf_t2DsAK-11" value="Symptom" style="shape=partialRectangle;connectable=0;fillColor=none;top=0;left=0;bottom=0;right=0;align=left;spacingLeft=6;overflow=hidden;whiteSpace=wrap;html=1;fontFamily=Times New Roman;fontSize=21;" vertex="1" parent="nveqq8prh_hxf_t2DsAK-9">
          <mxGeometry x="40" width="170" height="40" as="geometry">
            <mxRectangle width="170" height="40" as="alternateBounds" />
          </mxGeometry>
        </mxCell>
        <mxCell id="nveqq8prh_hxf_t2DsAK-19" value="Text" style="shape=partialRectangle;connectable=0;fillColor=none;top=0;left=0;bottom=0;right=0;align=left;spacingLeft=6;overflow=hidden;whiteSpace=wrap;html=1;fontFamily=Times New Roman;fontSize=21;" vertex="1" parent="nveqq8prh_hxf_t2DsAK-9">
          <mxGeometry x="210" width="140" height="40" as="geometry">
            <mxRectangle width="140" height="40" as="alternateBounds" />
          </mxGeometry>
        </mxCell>
        <mxCell id="nveqq8prh_hxf_t2DsAK-12" value="" style="shape=tableRow;horizontal=0;startSize=0;swimlaneHead=0;swimlaneBody=0;fillColor=none;collapsible=0;dropTarget=0;points=[[0,0.5],[1,0.5]];portConstraint=eastwest;top=0;left=0;right=0;bottom=0;" vertex="1" parent="nveqq8prh_hxf_t2DsAK-5">
          <mxGeometry y="120" width="350" height="30" as="geometry" />
        </mxCell>
        <mxCell id="nveqq8prh_hxf_t2DsAK-13" value="" style="shape=partialRectangle;connectable=0;fillColor=none;top=0;left=0;bottom=0;right=0;editable=1;overflow=hidden;whiteSpace=wrap;html=1;fontFamily=Times New Roman;fontSize=21;" vertex="1" parent="nveqq8prh_hxf_t2DsAK-12">
          <mxGeometry width="40" height="30" as="geometry">
            <mxRectangle width="40" height="30" as="alternateBounds" />
          </mxGeometry>
        </mxCell>
        <mxCell id="nveqq8prh_hxf_t2DsAK-14" value="Nutrition" style="shape=partialRectangle;connectable=0;fillColor=none;top=0;left=0;bottom=0;right=0;align=left;spacingLeft=6;overflow=hidden;whiteSpace=wrap;html=1;fontFamily=Times New Roman;fontSize=21;" vertex="1" parent="nveqq8prh_hxf_t2DsAK-12">
          <mxGeometry x="40" width="170" height="30" as="geometry">
            <mxRectangle width="170" height="30" as="alternateBounds" />
          </mxGeometry>
        </mxCell>
        <mxCell id="nveqq8prh_hxf_t2DsAK-20" value="Text" style="shape=partialRectangle;connectable=0;fillColor=none;top=0;left=0;bottom=0;right=0;align=left;spacingLeft=6;overflow=hidden;whiteSpace=wrap;html=1;fontFamily=Times New Roman;fontSize=21;" vertex="1" parent="nveqq8prh_hxf_t2DsAK-12">
          <mxGeometry x="210" width="140" height="30" as="geometry">
            <mxRectangle width="140" height="30" as="alternateBounds" />
          </mxGeometry>
        </mxCell>
        <mxCell id="nveqq8prh_hxf_t2DsAK-15" value="" style="shape=tableRow;horizontal=0;startSize=0;swimlaneHead=0;swimlaneBody=0;fillColor=none;collapsible=0;dropTarget=0;points=[[0,0.5],[1,0.5]];portConstraint=eastwest;top=0;left=0;right=0;bottom=0;" vertex="1" parent="nveqq8prh_hxf_t2DsAK-5">
          <mxGeometry y="150" width="350" height="30" as="geometry" />
        </mxCell>
        <mxCell id="nveqq8prh_hxf_t2DsAK-16" value="" style="shape=partialRectangle;connectable=0;fillColor=none;top=0;left=0;bottom=0;right=0;editable=1;overflow=hidden;whiteSpace=wrap;html=1;fontFamily=Times New Roman;fontSize=21;" vertex="1" parent="nveqq8prh_hxf_t2DsAK-15">
          <mxGeometry width="40" height="30" as="geometry">
            <mxRectangle width="40" height="30" as="alternateBounds" />
          </mxGeometry>
        </mxCell>
        <mxCell id="nveqq8prh_hxf_t2DsAK-17" value="Facts" style="shape=partialRectangle;connectable=0;fillColor=none;top=0;left=0;bottom=0;right=0;align=left;spacingLeft=6;overflow=hidden;whiteSpace=wrap;html=1;fontFamily=Times New Roman;fontSize=21;" vertex="1" parent="nveqq8prh_hxf_t2DsAK-15">
          <mxGeometry x="40" width="170" height="30" as="geometry">
            <mxRectangle width="170" height="30" as="alternateBounds" />
          </mxGeometry>
        </mxCell>
        <mxCell id="nveqq8prh_hxf_t2DsAK-21" value="Text" style="shape=partialRectangle;connectable=0;fillColor=none;top=0;left=0;bottom=0;right=0;align=left;spacingLeft=6;overflow=hidden;whiteSpace=wrap;html=1;fontFamily=Times New Roman;fontSize=21;" vertex="1" parent="nveqq8prh_hxf_t2DsAK-15">
          <mxGeometry x="210" width="140" height="30" as="geometry">
            <mxRectangle width="140" height="30" as="alternateBounds" />
          </mxGeometry>
        </mxCell>
        <mxCell id="nveqq8prh_hxf_t2DsAK-59" style="edgeStyle=entityRelationEdgeStyle;shape=connector;rounded=0;orthogonalLoop=1;jettySize=auto;html=1;exitX=0;exitY=0.25;exitDx=0;exitDy=0;entryX=1;entryY=0.5;entryDx=0;entryDy=0;labelBackgroundColor=default;strokeColor=default;strokeWidth=3;fontFamily=Times New Roman;fontSize=14;fontColor=default;startArrow=ERone;startFill=0;endArrow=ERmany;endFill=0;startSize=22;endSize=22;elbow=vertical;" edge="1" parent="1" source="nveqq8prh_hxf_t2DsAK-22" target="nveqq8prh_hxf_t2DsAK-9">
          <mxGeometry relative="1" as="geometry">
            <Array as="points">
              <mxPoint x="1362" y="777" />
              <mxPoint x="1362" y="737" />
            </Array>
          </mxGeometry>
        </mxCell>
        <mxCell id="nveqq8prh_hxf_t2DsAK-22" value="&lt;font style=&quot;font-size: 28px;&quot;&gt;Symptom Table&lt;/font&gt;" style="shape=table;startSize=50;container=1;collapsible=1;childLayout=tableLayout;fixedRows=1;rowLines=0;fontStyle=0;align=center;resizeLast=1;html=1;swimlaneLine=1;rounded=1;rotation=0;fontSize=14;fontFamily=Times New Roman;fillColor=#cccccc;strokeColor=#36393d;strokeWidth=2;shadow=0;dashed=0;arcSize=4;" vertex="1" parent="1">
          <mxGeometry x="1502" y="687" width="350" height="120" as="geometry" />
        </mxCell>
        <mxCell id="nveqq8prh_hxf_t2DsAK-23" value="" style="shape=tableRow;horizontal=0;startSize=0;swimlaneHead=0;swimlaneBody=0;fillColor=none;collapsible=0;dropTarget=0;points=[[0,0.5],[1,0.5]];portConstraint=eastwest;top=0;left=0;right=0;bottom=1;" vertex="1" parent="nveqq8prh_hxf_t2DsAK-22">
          <mxGeometry y="50" width="350" height="30" as="geometry" />
        </mxCell>
        <mxCell id="nveqq8prh_hxf_t2DsAK-24" value="PK" style="shape=partialRectangle;connectable=0;fillColor=none;top=0;left=0;bottom=0;right=0;fontStyle=1;overflow=hidden;whiteSpace=wrap;html=1;fontFamily=Times New Roman;fontSize=21;" vertex="1" parent="nveqq8prh_hxf_t2DsAK-23">
          <mxGeometry width="40" height="30" as="geometry">
            <mxRectangle width="40" height="30" as="alternateBounds" />
          </mxGeometry>
        </mxCell>
        <mxCell id="nveqq8prh_hxf_t2DsAK-25" value="UniqueID" style="shape=partialRectangle;connectable=0;fillColor=none;top=0;left=0;bottom=0;right=0;align=left;spacingLeft=6;fontStyle=5;overflow=hidden;whiteSpace=wrap;html=1;fontFamily=Times New Roman;fontSize=21;" vertex="1" parent="nveqq8prh_hxf_t2DsAK-23">
          <mxGeometry x="40" width="170" height="30" as="geometry">
            <mxRectangle width="170" height="30" as="alternateBounds" />
          </mxGeometry>
        </mxCell>
        <mxCell id="nveqq8prh_hxf_t2DsAK-26" value="INT" style="shape=partialRectangle;connectable=0;fillColor=none;top=0;left=0;bottom=0;right=0;align=left;spacingLeft=6;fontStyle=5;overflow=hidden;whiteSpace=wrap;html=1;fontFamily=Times New Roman;fontSize=21;" vertex="1" parent="nveqq8prh_hxf_t2DsAK-23">
          <mxGeometry x="210" width="140" height="30" as="geometry">
            <mxRectangle width="140" height="30" as="alternateBounds" />
          </mxGeometry>
        </mxCell>
        <mxCell id="nveqq8prh_hxf_t2DsAK-27" value="" style="shape=tableRow;horizontal=0;startSize=0;swimlaneHead=0;swimlaneBody=0;fillColor=none;collapsible=0;dropTarget=0;points=[[0,0.5],[1,0.5]];portConstraint=eastwest;top=0;left=0;right=0;bottom=0;" vertex="1" parent="nveqq8prh_hxf_t2DsAK-22">
          <mxGeometry y="80" width="350" height="40" as="geometry" />
        </mxCell>
        <mxCell id="nveqq8prh_hxf_t2DsAK-28" value="" style="shape=partialRectangle;connectable=0;fillColor=none;top=0;left=0;bottom=0;right=0;editable=1;overflow=hidden;whiteSpace=wrap;html=1;fontFamily=Times New Roman;fontSize=21;" vertex="1" parent="nveqq8prh_hxf_t2DsAK-27">
          <mxGeometry width="40" height="40" as="geometry">
            <mxRectangle width="40" height="40" as="alternateBounds" />
          </mxGeometry>
        </mxCell>
        <mxCell id="nveqq8prh_hxf_t2DsAK-29" value="Symptom" style="shape=partialRectangle;connectable=0;fillColor=none;top=0;left=0;bottom=0;right=0;align=left;spacingLeft=6;overflow=hidden;whiteSpace=wrap;html=1;fontFamily=Times New Roman;fontSize=21;" vertex="1" parent="nveqq8prh_hxf_t2DsAK-27">
          <mxGeometry x="40" width="170" height="40" as="geometry">
            <mxRectangle width="170" height="40" as="alternateBounds" />
          </mxGeometry>
        </mxCell>
        <mxCell id="nveqq8prh_hxf_t2DsAK-30" value="Text" style="shape=partialRectangle;connectable=0;fillColor=none;top=0;left=0;bottom=0;right=0;align=left;spacingLeft=6;overflow=hidden;whiteSpace=wrap;html=1;fontFamily=Times New Roman;fontSize=21;" vertex="1" parent="nveqq8prh_hxf_t2DsAK-27">
          <mxGeometry x="210" width="140" height="40" as="geometry">
            <mxRectangle width="140" height="40" as="alternateBounds" />
          </mxGeometry>
        </mxCell>
        <mxCell id="nveqq8prh_hxf_t2DsAK-60" style="edgeStyle=entityRelationEdgeStyle;shape=connector;rounded=0;orthogonalLoop=1;jettySize=auto;html=1;exitX=0;exitY=0.25;exitDx=0;exitDy=0;labelBackgroundColor=default;strokeColor=default;strokeWidth=3;fontFamily=Times New Roman;fontSize=14;fontColor=default;startArrow=ERone;startFill=0;endArrow=ERmany;endFill=0;startSize=22;endSize=22;" edge="1" parent="1" source="nveqq8prh_hxf_t2DsAK-39" target="nveqq8prh_hxf_t2DsAK-12">
          <mxGeometry relative="1" as="geometry" />
        </mxCell>
        <mxCell id="nveqq8prh_hxf_t2DsAK-39" value="&lt;font style=&quot;font-size: 28px;&quot;&gt;Nutrition Table&lt;/font&gt;" style="shape=table;startSize=50;container=1;collapsible=1;childLayout=tableLayout;fixedRows=1;rowLines=0;fontStyle=0;align=center;resizeLast=1;html=1;swimlaneLine=1;rounded=1;rotation=0;fontSize=14;fontFamily=Times New Roman;fillColor=#cccccc;strokeColor=#36393d;strokeWidth=2;shadow=0;dashed=0;arcSize=4;" vertex="1" parent="1">
          <mxGeometry x="1502" y="867" width="350" height="120" as="geometry" />
        </mxCell>
        <mxCell id="nveqq8prh_hxf_t2DsAK-40" value="" style="shape=tableRow;horizontal=0;startSize=0;swimlaneHead=0;swimlaneBody=0;fillColor=none;collapsible=0;dropTarget=0;points=[[0,0.5],[1,0.5]];portConstraint=eastwest;top=0;left=0;right=0;bottom=1;" vertex="1" parent="nveqq8prh_hxf_t2DsAK-39">
          <mxGeometry y="50" width="350" height="30" as="geometry" />
        </mxCell>
        <mxCell id="nveqq8prh_hxf_t2DsAK-41" value="PK" style="shape=partialRectangle;connectable=0;fillColor=none;top=0;left=0;bottom=0;right=0;fontStyle=1;overflow=hidden;whiteSpace=wrap;html=1;fontFamily=Times New Roman;fontSize=21;" vertex="1" parent="nveqq8prh_hxf_t2DsAK-40">
          <mxGeometry width="40" height="30" as="geometry">
            <mxRectangle width="40" height="30" as="alternateBounds" />
          </mxGeometry>
        </mxCell>
        <mxCell id="nveqq8prh_hxf_t2DsAK-42" value="UniqueID" style="shape=partialRectangle;connectable=0;fillColor=none;top=0;left=0;bottom=0;right=0;align=left;spacingLeft=6;fontStyle=5;overflow=hidden;whiteSpace=wrap;html=1;fontFamily=Times New Roman;fontSize=21;" vertex="1" parent="nveqq8prh_hxf_t2DsAK-40">
          <mxGeometry x="40" width="170" height="30" as="geometry">
            <mxRectangle width="170" height="30" as="alternateBounds" />
          </mxGeometry>
        </mxCell>
        <mxCell id="nveqq8prh_hxf_t2DsAK-43" value="INT" style="shape=partialRectangle;connectable=0;fillColor=none;top=0;left=0;bottom=0;right=0;align=left;spacingLeft=6;fontStyle=5;overflow=hidden;whiteSpace=wrap;html=1;fontFamily=Times New Roman;fontSize=21;" vertex="1" parent="nveqq8prh_hxf_t2DsAK-40">
          <mxGeometry x="210" width="140" height="30" as="geometry">
            <mxRectangle width="140" height="30" as="alternateBounds" />
          </mxGeometry>
        </mxCell>
        <mxCell id="nveqq8prh_hxf_t2DsAK-44" value="" style="shape=tableRow;horizontal=0;startSize=0;swimlaneHead=0;swimlaneBody=0;fillColor=none;collapsible=0;dropTarget=0;points=[[0,0.5],[1,0.5]];portConstraint=eastwest;top=0;left=0;right=0;bottom=0;" vertex="1" parent="nveqq8prh_hxf_t2DsAK-39">
          <mxGeometry y="80" width="350" height="40" as="geometry" />
        </mxCell>
        <mxCell id="nveqq8prh_hxf_t2DsAK-45" value="" style="shape=partialRectangle;connectable=0;fillColor=none;top=0;left=0;bottom=0;right=0;editable=1;overflow=hidden;whiteSpace=wrap;html=1;fontFamily=Times New Roman;fontSize=21;" vertex="1" parent="nveqq8prh_hxf_t2DsAK-44">
          <mxGeometry width="40" height="40" as="geometry">
            <mxRectangle width="40" height="40" as="alternateBounds" />
          </mxGeometry>
        </mxCell>
        <mxCell id="nveqq8prh_hxf_t2DsAK-46" value="Nutrition" style="shape=partialRectangle;connectable=0;fillColor=none;top=0;left=0;bottom=0;right=0;align=left;spacingLeft=6;overflow=hidden;whiteSpace=wrap;html=1;fontFamily=Times New Roman;fontSize=21;" vertex="1" parent="nveqq8prh_hxf_t2DsAK-44">
          <mxGeometry x="40" width="170" height="40" as="geometry">
            <mxRectangle width="170" height="40" as="alternateBounds" />
          </mxGeometry>
        </mxCell>
        <mxCell id="nveqq8prh_hxf_t2DsAK-47" value="Text" style="shape=partialRectangle;connectable=0;fillColor=none;top=0;left=0;bottom=0;right=0;align=left;spacingLeft=6;overflow=hidden;whiteSpace=wrap;html=1;fontFamily=Times New Roman;fontSize=21;" vertex="1" parent="nveqq8prh_hxf_t2DsAK-44">
          <mxGeometry x="210" width="140" height="40" as="geometry">
            <mxRectangle width="140" height="40" as="alternateBounds" />
          </mxGeometry>
        </mxCell>
        <mxCell id="nveqq8prh_hxf_t2DsAK-61" style="edgeStyle=entityRelationEdgeStyle;shape=connector;rounded=0;orthogonalLoop=1;jettySize=auto;html=1;exitX=0;exitY=0.25;exitDx=0;exitDy=0;entryX=1;entryY=0.5;entryDx=0;entryDy=0;labelBackgroundColor=default;strokeColor=default;strokeWidth=3;fontFamily=Times New Roman;fontSize=14;fontColor=default;startArrow=ERone;startFill=0;endArrow=ERmany;endFill=0;startSize=22;endSize=22;" edge="1" parent="1" source="nveqq8prh_hxf_t2DsAK-48" target="nveqq8prh_hxf_t2DsAK-15">
          <mxGeometry relative="1" as="geometry" />
        </mxCell>
        <mxCell id="nveqq8prh_hxf_t2DsAK-48" value="&lt;font style=&quot;font-size: 28px;&quot;&gt;Facts Table&lt;/font&gt;" style="shape=table;startSize=50;container=1;collapsible=1;childLayout=tableLayout;fixedRows=1;rowLines=0;fontStyle=0;align=center;resizeLast=1;html=1;swimlaneLine=1;rounded=1;rotation=0;fontSize=14;fontFamily=Times New Roman;fillColor=#cccccc;strokeColor=#36393d;strokeWidth=2;shadow=0;dashed=0;arcSize=4;" vertex="1" parent="1">
          <mxGeometry x="1502" y="1057" width="350" height="120" as="geometry" />
        </mxCell>
        <mxCell id="nveqq8prh_hxf_t2DsAK-49" value="" style="shape=tableRow;horizontal=0;startSize=0;swimlaneHead=0;swimlaneBody=0;fillColor=none;collapsible=0;dropTarget=0;points=[[0,0.5],[1,0.5]];portConstraint=eastwest;top=0;left=0;right=0;bottom=1;" vertex="1" parent="nveqq8prh_hxf_t2DsAK-48">
          <mxGeometry y="50" width="350" height="30" as="geometry" />
        </mxCell>
        <mxCell id="nveqq8prh_hxf_t2DsAK-50" value="PK" style="shape=partialRectangle;connectable=0;fillColor=none;top=0;left=0;bottom=0;right=0;fontStyle=1;overflow=hidden;whiteSpace=wrap;html=1;fontFamily=Times New Roman;fontSize=21;" vertex="1" parent="nveqq8prh_hxf_t2DsAK-49">
          <mxGeometry width="40" height="30" as="geometry">
            <mxRectangle width="40" height="30" as="alternateBounds" />
          </mxGeometry>
        </mxCell>
        <mxCell id="nveqq8prh_hxf_t2DsAK-51" value="UniqueID" style="shape=partialRectangle;connectable=0;fillColor=none;top=0;left=0;bottom=0;right=0;align=left;spacingLeft=6;fontStyle=5;overflow=hidden;whiteSpace=wrap;html=1;fontFamily=Times New Roman;fontSize=21;" vertex="1" parent="nveqq8prh_hxf_t2DsAK-49">
          <mxGeometry x="40" width="170" height="30" as="geometry">
            <mxRectangle width="170" height="30" as="alternateBounds" />
          </mxGeometry>
        </mxCell>
        <mxCell id="nveqq8prh_hxf_t2DsAK-52" value="INT" style="shape=partialRectangle;connectable=0;fillColor=none;top=0;left=0;bottom=0;right=0;align=left;spacingLeft=6;fontStyle=5;overflow=hidden;whiteSpace=wrap;html=1;fontFamily=Times New Roman;fontSize=21;" vertex="1" parent="nveqq8prh_hxf_t2DsAK-49">
          <mxGeometry x="210" width="140" height="30" as="geometry">
            <mxRectangle width="140" height="30" as="alternateBounds" />
          </mxGeometry>
        </mxCell>
        <mxCell id="nveqq8prh_hxf_t2DsAK-53" value="" style="shape=tableRow;horizontal=0;startSize=0;swimlaneHead=0;swimlaneBody=0;fillColor=none;collapsible=0;dropTarget=0;points=[[0,0.5],[1,0.5]];portConstraint=eastwest;top=0;left=0;right=0;bottom=0;" vertex="1" parent="nveqq8prh_hxf_t2DsAK-48">
          <mxGeometry y="80" width="350" height="40" as="geometry" />
        </mxCell>
        <mxCell id="nveqq8prh_hxf_t2DsAK-54" value="" style="shape=partialRectangle;connectable=0;fillColor=none;top=0;left=0;bottom=0;right=0;editable=1;overflow=hidden;whiteSpace=wrap;html=1;fontFamily=Times New Roman;fontSize=21;" vertex="1" parent="nveqq8prh_hxf_t2DsAK-53">
          <mxGeometry width="40" height="40" as="geometry">
            <mxRectangle width="40" height="40" as="alternateBounds" />
          </mxGeometry>
        </mxCell>
        <mxCell id="nveqq8prh_hxf_t2DsAK-55" value="Facts" style="shape=partialRectangle;connectable=0;fillColor=none;top=0;left=0;bottom=0;right=0;align=left;spacingLeft=6;overflow=hidden;whiteSpace=wrap;html=1;fontFamily=Times New Roman;fontSize=21;" vertex="1" parent="nveqq8prh_hxf_t2DsAK-53">
          <mxGeometry x="40" width="170" height="40" as="geometry">
            <mxRectangle width="170" height="40" as="alternateBounds" />
          </mxGeometry>
        </mxCell>
        <mxCell id="nveqq8prh_hxf_t2DsAK-56" value="Text" style="shape=partialRectangle;connectable=0;fillColor=none;top=0;left=0;bottom=0;right=0;align=left;spacingLeft=6;overflow=hidden;whiteSpace=wrap;html=1;fontFamily=Times New Roman;fontSize=21;" vertex="1" parent="nveqq8prh_hxf_t2DsAK-53">
          <mxGeometry x="210" width="140" height="40" as="geometry">
            <mxRectangle width="140" height="40" as="alternateBounds" />
          </mxGeometry>
        </mxCell>
        <mxCell id="nveqq8prh_hxf_t2DsAK-57" value="" style="edgeStyle=entityRelationEdgeStyle;rounded=0;orthogonalLoop=1;jettySize=auto;html=1;exitX=1.011;exitY=0.132;exitDx=0;exitDy=0;entryX=-0.011;entryY=0.14;entryDx=0;entryDy=0;entryPerimeter=0;fontFamily=Times New Roman;fontSize=14;fontColor=default;startSize=22;startArrow=ERone;startFill=0;endSize=22;endArrow=ERmany;endFill=0;strokeWidth=3;exitPerimeter=0;" edge="1" parent="1" source="nveqq8prh_hxf_t2DsAK-3" target="nveqq8prh_hxf_t2DsAK-5">
          <mxGeometry relative="1" as="geometry" />
        </mxCell>
        <mxCell id="nveqq8prh_hxf_t2DsAK-58" value="" style="edgeStyle=entityRelationEdgeStyle;rounded=0;orthogonalLoop=1;jettySize=auto;html=1;exitX=1;exitY=0.5;exitDx=0;exitDy=0;entryX=-0.002;entryY=0.122;entryDx=0;entryDy=0;entryPerimeter=0;fontFamily=Times New Roman;fontSize=14;fontColor=default;startSize=22;startArrow=ERone;startFill=0;endSize=22;endArrow=ERmany;endFill=0;strokeWidth=3;" edge="1" parent="1" source="nveqq8prh_hxf_t2DsAK-2" target="nveqq8prh_hxf_t2DsAK-3">
          <mxGeometry relative="1" as="geometry">
            <mxPoint x="372" y="856" as="sourcePoint" />
            <mxPoint x="519.9999999999999" y="797" as="targetPoint" />
          </mxGeometry>
        </mxCell>
      </root>
    </mxGraphModel>
  </diagram>
</mxfile>
